<svg xmlns="http://www.w3.org/2000/svg" viewBox="0 0 500 500"><g id="freepik--background-simple--inject-16"><path d="M467.6,251.91c-4.93,41.8-24,90.41-62.14,112.73-57.59,33.75-52.77,85.64-165.19,108.2a231.26,231.26,0,0,1-49.84,4.71,194.66,194.66,0,0,1-24.47-2C94.51,465.12,46.43,415.46,28.79,355.5,5.58,276.66,51.93,225,82.65,193.94s53.23-128,163.57-151A223.75,223.75,0,0,1,297.45,38c39.26,1,82.08,13.86,111.71,40.76q3.33,3,6.5,6.28C456.84,127.33,474.34,194.92,467.6,251.91Z" style="fill:#689E78"></path><path d="M467.6,251.91c-4.93,41.8-24,90.41-62.14,112.73-57.59,33.75-52.77,85.64-165.19,108.2a231.26,231.26,0,0,1-49.84,4.71,194.66,194.66,0,0,1-24.47-2C94.51,465.12,46.43,415.46,28.79,355.5,5.58,276.66,51.93,225,82.65,193.94s53.23-128,163.57-151A223.75,223.75,0,0,1,297.45,38c39.26,1,82.08,13.86,111.71,40.76q3.33,3,6.5,6.28C456.84,127.33,474.34,194.92,467.6,251.91Z" style="fill:#fff;opacity:0.7000000000000001"></path></g><g id="freepik--Floor--inject-16"><line x1="25.44" y1="464.1" x2="476.82" y2="464.1" style="fill:none;stroke:#263238;stroke-linecap:round;stroke-linejoin:round"></line></g><g id="freepik--Clouds--inject-16"><path d="M377.45,73.4h56.21s5.4-16.18-4.31-22.11-9.71,2.16-17.26-1.08c-6.24-2.67-7.41-7.75-9.15-13.13-.2-.61-.41-1.23-.63-1.85A25.21,25.21,0,0,0,400,30.45" style="fill:none;stroke:#b2b2b2;stroke-linecap:round;stroke-linejoin:round"></path><path d="M393.38,23.44C379.29,13.17,356,17,356,38.88c0,5.4-12.95,0-17.8,7s.54,11.33-5.93,13.49-7-3.24-15.11-2.7-7,8.09-9.71,10.25-2.69,1.08-8.63,1.62-7,4.85-7,4.85h75.69" style="fill:none;stroke:#b2b2b2;stroke-linecap:round;stroke-linejoin:round"></path><path d="M407.84,67.5s2.94-9.08-4.27-15.76-14.7-2.94-16.83,0-2.14,8.55-5.61,9.08S378.45,55,371,56.55s-4.54,9.08-8,10.68-3.47-4.27-8.28-2.4-4.54,5.34-4.54,5.34" style="fill:none;stroke:#b2b2b2;stroke-linecap:round;stroke-linejoin:round"></path><path d="M369.47,49.35a13.53,13.53,0,0,0-13.68-1.19c-7.74,3.57-4.17,11-7.74,12.79s-5.35-.29-9.81,1.79-4.17,5.05-4.17,5.05" style="fill:none;stroke:#b2b2b2;stroke-linecap:round;stroke-linejoin:round"></path><path d="M51.94,101.42A5.12,5.12,0,0,0,49,100.8c-3.14.21-2.72,3.15-3.77,4s-1,.42-3.36.63a2.86,2.86,0,0,0-2.73,1.88H94.35s1.36-4.07-.08-6.87" style="fill:none;stroke:#b2b2b2;stroke-linecap:round;stroke-linejoin:round"></path><path d="M92.67,98.7c-3.78-2.3-3.78.84-6.71-.42-2.43-1-2.88-3-3.56-5.1-.08-.24-.16-.48-.25-.72-3.18-8.86-18-9.47-18,1.42,0,2.1-5,0-6.92,2.73s.21,4.4-2.31,5.24" style="fill:none;stroke:#b2b2b2;stroke-linecap:round;stroke-linejoin:round"></path><path d="M84.3,105a6.15,6.15,0,0,0-1.66-6.13c-2.8-2.6-5.71-1.14-6.54,0s-.83,3.32-2.19,3.53-1-2.28-3.94-1.66-1.77,3.53-3.12,4.16-1.35-1.67-3.22-.94-1.77,2.08-1.77,2.08" style="fill:none;stroke:#b2b2b2;stroke-linecap:round;stroke-linejoin:round"></path><path d="M69.38,98a5.26,5.26,0,0,0-5.32-.46c-3,1.39-1.62,4.28-3,5s-2.08-.11-3.81.7-1.62,2-1.62,2" style="fill:none;stroke:#b2b2b2;stroke-linecap:round;stroke-linejoin:round"></path><path d="M218.68,45.52a5.12,5.12,0,0,0-2.91-.62c-3.14.21-2.72,3.15-3.77,4s-1.05.42-3.36.62a2.86,2.86,0,0,0-2.73,1.89h55.18s1.35-4.07-.08-6.87" style="fill:none;stroke:#b2b2b2;stroke-linecap:round;stroke-linejoin:round"></path><path d="M259.41,42.8c-3.78-2.31-3.78.84-6.72-.42-2.42-1-2.88-3-3.55-5.1-.08-.24-.16-.48-.25-.72-3.19-8.86-18-9.48-18,1.42,0,2.09-5,0-6.93,2.72s.21,4.41-2.3,5.25" style="fill:none;stroke:#b2b2b2;stroke-linecap:round;stroke-linejoin:round"></path><path d="M251,49.11A6.15,6.15,0,0,0,249.38,43c-2.8-2.6-5.71-1.15-6.54,0s-.84,3.32-2.19,3.53-1-2.29-3.94-1.66-1.77,3.53-3.12,4.15-1.35-1.66-3.22-.93-1.77,2.08-1.77,2.08" style="fill:none;stroke:#b2b2b2;stroke-linecap:round;stroke-linejoin:round"></path><path d="M236.12,42.05a5.26,5.26,0,0,0-5.32-.46c-3,1.38-1.62,4.28-3,5s-2.08-.12-3.82.69-1.62,2-1.62,2" style="fill:none;stroke:#b2b2b2;stroke-linecap:round;stroke-linejoin:round"></path></g><g id="freepik--Building--inject-16"><rect x="236.01" y="81.07" width="59.25" height="320.21" style="fill:#263238;stroke:#263238;stroke-linecap:round;stroke-linejoin:round"></rect><rect x="280.77" y="81.07" width="50.02" height="320.21" style="fill:#fff;stroke:#263238;stroke-linecap:round;stroke-linejoin:round"></rect><rect x="282.64" y="84.51" width="45.81" height="15.84" style="fill:#fff;stroke:#263238;stroke-linecap:round;stroke-linejoin:round"></rect><line x1="288.84" y1="86.72" x2="288.84" y2="98.23" style="fill:none;stroke:#263238;stroke-linecap:round;stroke-linejoin:round"></line><line x1="295.64" y1="86.72" x2="295.64" y2="98.23" style="fill:none;stroke:#263238;stroke-linecap:round;stroke-linejoin:round"></line><line x1="302.43" y1="86.72" x2="302.43" y2="98.23" style="fill:none;stroke:#263238;stroke-linecap:round;stroke-linejoin:round"></line><line x1="309.23" y1="86.72" x2="309.23" y2="98.23" style="fill:none;stroke:#263238;stroke-linecap:round;stroke-linejoin:round"></line><line x1="316.03" y1="86.72" x2="316.03" y2="98.23" style="fill:none;stroke:#263238;stroke-linecap:round;stroke-linejoin:round"></line><line x1="322.82" y1="86.72" x2="322.82" y2="98.23" style="fill:none;stroke:#263238;stroke-linecap:round;stroke-linejoin:round"></line><rect x="238.67" y="84.51" width="39.27" height="15.84" style="fill:#fff;stroke:#263238;stroke-linecap:round;stroke-linejoin:round"></rect><line x1="243.98" y1="86.72" x2="243.98" y2="98.23" style="fill:none;stroke:#263238;stroke-linecap:round;stroke-linejoin:round"></line><line x1="249.81" y1="86.72" x2="249.81" y2="98.23" style="fill:none;stroke:#263238;stroke-linecap:round;stroke-linejoin:round"></line><line x1="255.63" y1="86.72" x2="255.63" y2="98.23" style="fill:none;stroke:#263238;stroke-linecap:round;stroke-linejoin:round"></line><line x1="261.46" y1="86.72" x2="261.46" y2="98.23" style="fill:none;stroke:#263238;stroke-linecap:round;stroke-linejoin:round"></line><line x1="267.29" y1="86.72" x2="267.29" y2="98.23" style="fill:none;stroke:#263238;stroke-linecap:round;stroke-linejoin:round"></line><line x1="273.11" y1="86.72" x2="273.11" y2="98.23" style="fill:none;stroke:#263238;stroke-linecap:round;stroke-linejoin:round"></line><rect x="113.57" y="123.07" width="108.11" height="278.2" style="fill:#fff;stroke:#263238;stroke-linecap:round;stroke-linejoin:round"></rect><rect x="120.19" y="133.71" width="40.14" height="256.94" style="fill:#263238;stroke:#263238;stroke-linecap:round;stroke-linejoin:round"></rect><rect x="165.91" y="123.07" width="108.11" height="278.2" style="fill:#fff;stroke:#263238;stroke-linecap:round;stroke-linejoin:round"></rect><rect x="174.81" y="133.71" width="90.3" height="256.94" style="fill:#fff;stroke:#263238;stroke-linecap:round;stroke-linejoin:round"></rect><rect x="178.99" y="144.08" width="18.5" height="9.68" style="fill:#fff;stroke:#263238;stroke-linecap:round;stroke-linejoin:round"></rect><rect x="200.14" y="144.08" width="18.5" height="9.68" style="fill:#fff;stroke:#263238;stroke-linecap:round;stroke-linejoin:round"></rect><rect x="221.28" y="144.08" width="18.5" height="9.68" style="fill:#fff;stroke:#263238;stroke-linecap:round;stroke-linejoin:round"></rect><rect x="242.43" y="144.08" width="18.5" height="9.68" style="fill:#fff;stroke:#263238;stroke-linecap:round;stroke-linejoin:round"></rect><rect x="178.99" y="161.29" width="18.5" height="9.68" style="fill:#fff;stroke:#263238;stroke-linecap:round;stroke-linejoin:round"></rect><rect x="200.14" y="161.29" width="18.5" height="9.68" style="fill:#fff;stroke:#263238;stroke-linecap:round;stroke-linejoin:round"></rect><rect x="221.28" y="161.29" width="18.5" height="9.68" style="fill:#fff;stroke:#263238;stroke-linecap:round;stroke-linejoin:round"></rect><rect x="242.43" y="161.29" width="18.5" height="9.68" style="fill:#fff;stroke:#263238;stroke-linecap:round;stroke-linejoin:round"></rect><rect x="178.99" y="178.51" width="18.5" height="9.68" style="fill:#fff;stroke:#263238;stroke-linecap:round;stroke-linejoin:round"></rect><rect x="200.14" y="178.51" width="18.5" height="9.68" style="fill:#fff;stroke:#263238;stroke-linecap:round;stroke-linejoin:round"></rect><rect x="221.28" y="178.51" width="18.5" height="9.68" style="fill:#fff;stroke:#263238;stroke-linecap:round;stroke-linejoin:round"></rect><rect x="242.43" y="178.51" width="18.5" height="9.68" style="fill:#fff;stroke:#263238;stroke-linecap:round;stroke-linejoin:round"></rect><rect x="178.99" y="195.72" width="18.5" height="9.68" style="fill:#fff;stroke:#263238;stroke-linecap:round;stroke-linejoin:round"></rect><rect x="200.14" y="195.72" width="18.5" height="9.68" style="fill:#fff;stroke:#263238;stroke-linecap:round;stroke-linejoin:round"></rect><rect x="221.28" y="195.72" width="18.5" height="9.68" style="fill:#fff;stroke:#263238;stroke-linecap:round;stroke-linejoin:round"></rect><rect x="242.43" y="195.72" width="18.5" height="9.68" style="fill:#fff;stroke:#263238;stroke-linecap:round;stroke-linejoin:round"></rect><rect x="178.99" y="212.94" width="18.5" height="9.68" style="fill:#fff;stroke:#263238;stroke-linecap:round;stroke-linejoin:round"></rect><rect x="200.14" y="212.94" width="18.5" height="9.68" style="fill:#fff;stroke:#263238;stroke-linecap:round;stroke-linejoin:round"></rect><rect x="221.28" y="212.94" width="18.5" height="9.68" style="fill:#fff;stroke:#263238;stroke-linecap:round;stroke-linejoin:round"></rect><rect x="242.43" y="212.94" width="18.5" height="9.68" style="fill:#fff;stroke:#263238;stroke-linecap:round;stroke-linejoin:round"></rect><rect x="178.99" y="230.16" width="18.5" height="9.68" style="fill:#fff;stroke:#263238;stroke-linecap:round;stroke-linejoin:round"></rect><rect x="200.14" y="230.16" width="18.5" height="9.68" style="fill:#fff;stroke:#263238;stroke-linecap:round;stroke-linejoin:round"></rect><rect x="221.28" y="230.16" width="18.5" height="9.68" style="fill:#fff;stroke:#263238;stroke-linecap:round;stroke-linejoin:round"></rect><rect x="242.43" y="230.16" width="18.5" height="9.68" style="fill:#fff;stroke:#263238;stroke-linecap:round;stroke-linejoin:round"></rect><rect x="178.99" y="247.37" width="18.5" height="9.68" style="fill:#fff;stroke:#263238;stroke-linecap:round;stroke-linejoin:round"></rect><rect x="200.14" y="247.37" width="18.5" height="9.68" style="fill:#fff;stroke:#263238;stroke-linecap:round;stroke-linejoin:round"></rect><rect x="221.28" y="247.37" width="18.5" height="9.68" style="fill:#fff;stroke:#263238;stroke-linecap:round;stroke-linejoin:round"></rect><rect x="242.43" y="247.37" width="18.5" height="9.68" style="fill:#fff;stroke:#263238;stroke-linecap:round;stroke-linejoin:round"></rect><rect x="178.99" y="264.59" width="18.5" height="9.68" style="fill:#fff;stroke:#263238;stroke-linecap:round;stroke-linejoin:round"></rect><rect x="200.14" y="264.59" width="18.5" height="9.68" style="fill:#fff;stroke:#263238;stroke-linecap:round;stroke-linejoin:round"></rect><rect x="221.28" y="264.59" width="18.5" height="9.68" style="fill:#fff;stroke:#263238;stroke-linecap:round;stroke-linejoin:round"></rect><rect x="242.43" y="264.59" width="18.5" height="9.68" style="fill:#fff;stroke:#263238;stroke-linecap:round;stroke-linejoin:round"></rect><rect x="178.99" y="281.8" width="18.5" height="9.68" style="fill:#fff;stroke:#263238;stroke-linecap:round;stroke-linejoin:round"></rect><rect x="200.14" y="281.8" width="18.5" height="9.68" style="fill:#fff;stroke:#263238;stroke-linecap:round;stroke-linejoin:round"></rect><rect x="221.28" y="281.8" width="18.5" height="9.68" style="fill:#fff;stroke:#263238;stroke-linecap:round;stroke-linejoin:round"></rect><rect x="242.43" y="281.8" width="18.5" height="9.68" style="fill:#fff;stroke:#263238;stroke-linecap:round;stroke-linejoin:round"></rect><rect x="178.99" y="299.02" width="18.5" height="9.68" style="fill:#fff;stroke:#263238;stroke-linecap:round;stroke-linejoin:round"></rect><rect x="200.14" y="299.02" width="18.5" height="9.68" style="fill:#fff;stroke:#263238;stroke-linecap:round;stroke-linejoin:round"></rect><rect x="221.28" y="299.02" width="18.5" height="9.68" style="fill:#fff;stroke:#263238;stroke-linecap:round;stroke-linejoin:round"></rect><rect x="242.43" y="299.02" width="18.5" height="9.68" style="fill:#fff;stroke:#263238;stroke-linecap:round;stroke-linejoin:round"></rect><rect x="178.99" y="316.23" width="18.5" height="9.68" style="fill:#fff;stroke:#263238;stroke-linecap:round;stroke-linejoin:round"></rect><rect x="200.14" y="316.23" width="18.5" height="9.68" style="fill:#fff;stroke:#263238;stroke-linecap:round;stroke-linejoin:round"></rect><rect x="221.28" y="316.23" width="18.5" height="9.68" style="fill:#fff;stroke:#263238;stroke-linecap:round;stroke-linejoin:round"></rect><rect x="242.43" y="316.23" width="18.5" height="9.68" style="fill:#fff;stroke:#263238;stroke-linecap:round;stroke-linejoin:round"></rect><rect x="178.99" y="333.45" width="18.5" height="9.68" style="fill:#fff;stroke:#263238;stroke-linecap:round;stroke-linejoin:round"></rect><rect x="200.14" y="333.45" width="18.5" height="9.68" style="fill:#fff;stroke:#263238;stroke-linecap:round;stroke-linejoin:round"></rect><rect x="221.28" y="333.45" width="18.5" height="9.68" style="fill:#fff;stroke:#263238;stroke-linecap:round;stroke-linejoin:round"></rect><rect x="242.43" y="333.45" width="18.5" height="9.68" style="fill:#fff;stroke:#263238;stroke-linecap:round;stroke-linejoin:round"></rect><rect x="178.99" y="350.67" width="18.5" height="9.68" style="fill:#fff;stroke:#263238;stroke-linecap:round;stroke-linejoin:round"></rect><rect x="200.14" y="350.67" width="18.5" height="9.68" style="fill:#fff;stroke:#263238;stroke-linecap:round;stroke-linejoin:round"></rect><rect x="221.28" y="350.67" width="18.5" height="9.68" style="fill:#fff;stroke:#263238;stroke-linecap:round;stroke-linejoin:round"></rect><rect x="242.43" y="350.67" width="18.5" height="9.68" style="fill:#fff;stroke:#263238;stroke-linecap:round;stroke-linejoin:round"></rect><rect x="178.99" y="367.88" width="18.5" height="9.68" style="fill:#fff;stroke:#263238;stroke-linecap:round;stroke-linejoin:round"></rect><rect x="200.14" y="367.88" width="18.5" height="9.68" style="fill:#fff;stroke:#263238;stroke-linecap:round;stroke-linejoin:round"></rect><rect x="221.28" y="367.88" width="18.5" height="9.68" style="fill:#fff;stroke:#263238;stroke-linecap:round;stroke-linejoin:round"></rect><rect x="242.43" y="367.88" width="18.5" height="9.68" style="fill:#fff;stroke:#263238;stroke-linecap:round;stroke-linejoin:round"></rect><rect x="126.75" y="144.08" width="6.2" height="9.68" style="fill:#fff;stroke:#263238;stroke-linecap:round;stroke-linejoin:round"></rect><rect x="133.84" y="144.08" width="6.2" height="9.68" style="fill:#fff;stroke:#263238;stroke-linecap:round;stroke-linejoin:round"></rect><rect x="140.92" y="144.08" width="6.2" height="9.68" style="fill:#fff;stroke:#263238;stroke-linecap:round;stroke-linejoin:round"></rect><rect x="148" y="144.08" width="6.2" height="9.68" style="fill:#fff;stroke:#263238;stroke-linecap:round;stroke-linejoin:round"></rect><rect x="126.75" y="161.29" width="6.2" height="9.68" style="fill:#fff;stroke:#263238;stroke-linecap:round;stroke-linejoin:round"></rect><rect x="133.84" y="161.29" width="6.2" height="9.68" style="fill:#fff;stroke:#263238;stroke-linecap:round;stroke-linejoin:round"></rect><rect x="140.92" y="161.29" width="6.2" height="9.68" style="fill:#fff;stroke:#263238;stroke-linecap:round;stroke-linejoin:round"></rect><rect x="148" y="161.29" width="6.2" height="9.68" style="fill:#fff;stroke:#263238;stroke-linecap:round;stroke-linejoin:round"></rect><rect x="126.75" y="178.51" width="6.2" height="9.68" style="fill:#fff;stroke:#263238;stroke-linecap:round;stroke-linejoin:round"></rect><rect x="133.84" y="178.51" width="6.2" height="9.68" style="fill:#fff;stroke:#263238;stroke-linecap:round;stroke-linejoin:round"></rect><rect x="140.92" y="178.51" width="6.2" height="9.68" style="fill:#fff;stroke:#263238;stroke-linecap:round;stroke-linejoin:round"></rect><rect x="148" y="178.51" width="6.2" height="9.68" style="fill:#fff;stroke:#263238;stroke-linecap:round;stroke-linejoin:round"></rect><rect x="126.75" y="195.72" width="6.2" height="9.68" style="fill:#fff;stroke:#263238;stroke-linecap:round;stroke-linejoin:round"></rect><rect x="133.84" y="195.72" width="6.2" height="9.68" style="fill:#fff;stroke:#263238;stroke-linecap:round;stroke-linejoin:round"></rect><rect x="140.92" y="195.72" width="6.2" height="9.68" style="fill:#fff;stroke:#263238;stroke-linecap:round;stroke-linejoin:round"></rect><rect x="148" y="195.72" width="6.2" height="9.68" style="fill:#fff;stroke:#263238;stroke-linecap:round;stroke-linejoin:round"></rect><rect x="126.75" y="212.94" width="6.2" height="9.68" style="fill:#fff;stroke:#263238;stroke-linecap:round;stroke-linejoin:round"></rect><rect x="133.84" y="212.94" width="6.2" height="9.68" style="fill:#fff;stroke:#263238;stroke-linecap:round;stroke-linejoin:round"></rect><rect x="140.92" y="212.94" width="6.2" height="9.68" style="fill:#fff;stroke:#263238;stroke-linecap:round;stroke-linejoin:round"></rect><rect x="148" y="212.94" width="6.2" height="9.68" style="fill:#fff;stroke:#263238;stroke-linecap:round;stroke-linejoin:round"></rect><rect x="126.75" y="230.16" width="6.2" height="9.68" style="fill:#fff;stroke:#263238;stroke-linecap:round;stroke-linejoin:round"></rect><rect x="133.84" y="230.16" width="6.2" height="9.68" style="fill:#fff;stroke:#263238;stroke-linecap:round;stroke-linejoin:round"></rect><rect x="140.92" y="230.16" width="6.2" height="9.68" style="fill:#fff;stroke:#263238;stroke-linecap:round;stroke-linejoin:round"></rect><rect x="148" y="230.16" width="6.2" height="9.68" style="fill:#fff;stroke:#263238;stroke-linecap:round;stroke-linejoin:round"></rect><rect x="126.75" y="247.37" width="6.2" height="9.68" style="fill:#fff;stroke:#263238;stroke-linecap:round;stroke-linejoin:round"></rect><rect x="133.84" y="247.37" width="6.2" height="9.68" style="fill:#fff;stroke:#263238;stroke-linecap:round;stroke-linejoin:round"></rect><rect x="140.92" y="247.37" width="6.2" height="9.68" style="fill:#fff;stroke:#263238;stroke-linecap:round;stroke-linejoin:round"></rect><rect x="148" y="247.37" width="6.2" height="9.68" style="fill:#fff;stroke:#263238;stroke-linecap:round;stroke-linejoin:round"></rect><rect x="126.75" y="264.59" width="6.2" height="9.68" style="fill:#fff;stroke:#263238;stroke-linecap:round;stroke-linejoin:round"></rect><rect x="133.84" y="264.59" width="6.2" height="9.68" style="fill:#fff;stroke:#263238;stroke-linecap:round;stroke-linejoin:round"></rect><rect x="140.92" y="264.59" width="6.2" height="9.68" style="fill:#fff;stroke:#263238;stroke-linecap:round;stroke-linejoin:round"></rect><rect x="148" y="264.59" width="6.2" height="9.68" style="fill:#fff;stroke:#263238;stroke-linecap:round;stroke-linejoin:round"></rect><rect x="126.75" y="281.8" width="6.2" height="9.68" style="fill:#fff;stroke:#263238;stroke-linecap:round;stroke-linejoin:round"></rect><rect x="133.84" y="281.8" width="6.2" height="9.68" style="fill:#fff;stroke:#263238;stroke-linecap:round;stroke-linejoin:round"></rect><rect x="140.92" y="281.8" width="6.2" height="9.68" style="fill:#fff;stroke:#263238;stroke-linecap:round;stroke-linejoin:round"></rect><rect x="148" y="281.8" width="6.2" height="9.68" style="fill:#fff;stroke:#263238;stroke-linecap:round;stroke-linejoin:round"></rect><rect x="126.75" y="299.02" width="6.2" height="9.68" style="fill:#fff;stroke:#263238;stroke-linecap:round;stroke-linejoin:round"></rect><rect x="133.84" y="299.02" width="6.2" height="9.68" style="fill:#fff;stroke:#263238;stroke-linecap:round;stroke-linejoin:round"></rect><rect x="140.92" y="299.02" width="6.2" height="9.68" style="fill:#fff;stroke:#263238;stroke-linecap:round;stroke-linejoin:round"></rect><rect x="148" y="299.02" width="6.2" height="9.68" style="fill:#fff;stroke:#263238;stroke-linecap:round;stroke-linejoin:round"></rect><rect x="126.75" y="316.23" width="6.2" height="9.68" style="fill:#fff;stroke:#263238;stroke-linecap:round;stroke-linejoin:round"></rect><rect x="133.84" y="316.23" width="6.2" height="9.68" style="fill:#fff;stroke:#263238;stroke-linecap:round;stroke-linejoin:round"></rect><rect x="140.92" y="316.23" width="6.2" height="9.68" style="fill:#fff;stroke:#263238;stroke-linecap:round;stroke-linejoin:round"></rect><rect x="148" y="316.23" width="6.2" height="9.68" style="fill:#fff;stroke:#263238;stroke-linecap:round;stroke-linejoin:round"></rect><rect x="126.75" y="333.45" width="6.2" height="9.68" style="fill:#fff;stroke:#263238;stroke-linecap:round;stroke-linejoin:round"></rect><rect x="133.84" y="333.45" width="6.2" height="9.68" style="fill:#fff;stroke:#263238;stroke-linecap:round;stroke-linejoin:round"></rect><rect x="140.92" y="333.45" width="6.2" height="9.68" style="fill:#fff;stroke:#263238;stroke-linecap:round;stroke-linejoin:round"></rect><rect x="148" y="333.45" width="6.2" height="9.68" style="fill:#fff;stroke:#263238;stroke-linecap:round;stroke-linejoin:round"></rect><rect x="126.75" y="350.67" width="6.2" height="9.68" style="fill:#fff;stroke:#263238;stroke-linecap:round;stroke-linejoin:round"></rect><rect x="133.84" y="350.67" width="6.2" height="9.68" style="fill:#fff;stroke:#263238;stroke-linecap:round;stroke-linejoin:round"></rect><rect x="140.92" y="350.67" width="6.2" height="9.68" style="fill:#fff;stroke:#263238;stroke-linecap:round;stroke-linejoin:round"></rect><rect x="148" y="350.67" width="6.2" height="9.68" style="fill:#fff;stroke:#263238;stroke-linecap:round;stroke-linejoin:round"></rect><rect x="126.75" y="367.88" width="6.2" height="9.68" style="fill:#fff;stroke:#263238;stroke-linecap:round;stroke-linejoin:round"></rect><rect x="133.84" y="367.88" width="6.2" height="9.68" style="fill:#fff;stroke:#263238;stroke-linecap:round;stroke-linejoin:round"></rect><rect x="140.92" y="367.88" width="6.2" height="9.68" style="fill:#fff;stroke:#263238;stroke-linecap:round;stroke-linejoin:round"></rect><rect x="148" y="367.88" width="6.2" height="9.68" style="fill:#fff;stroke:#263238;stroke-linecap:round;stroke-linejoin:round"></rect><rect x="73.09" y="427.16" width="265.86" height="37.43" style="fill:#263238;stroke:#263238;stroke-linecap:round;stroke-linejoin:round"></rect><rect x="195.19" y="439.52" width="6.9" height="25.06" style="fill:#fff;stroke:#263238;stroke-linecap:round;stroke-linejoin:round"></rect><rect x="163.46" y="439.52" width="6.9" height="25.06" style="fill:#fff;stroke:#263238;stroke-linecap:round;stroke-linejoin:round"></rect><rect x="131.73" y="439.52" width="6.9" height="25.06" style="fill:#fff;stroke:#263238;stroke-linecap:round;stroke-linejoin:round"></rect><rect x="100" y="439.52" width="6.9" height="25.06" style="fill:#fff;stroke:#263238;stroke-linecap:round;stroke-linejoin:round"></rect><rect x="68.28" y="439.52" width="6.9" height="25.06" style="fill:#fff;stroke:#263238;stroke-linecap:round;stroke-linejoin:round"></rect><rect x="241.94" y="439.52" width="6.9" height="25.06" style="fill:#fff;stroke:#263238;stroke-linecap:round;stroke-linejoin:round"></rect><rect x="288.7" y="439.52" width="6.9" height="25.06" style="fill:#fff;stroke:#263238;stroke-linecap:round;stroke-linejoin:round"></rect><rect x="335.45" y="439.52" width="6.9" height="25.06" style="fill:#fff;stroke:#263238;stroke-linecap:round;stroke-linejoin:round"></rect><rect x="162.41" y="373.33" width="181.69" height="69.41" style="fill:#fff;stroke:#263238;stroke-linecap:round;stroke-linejoin:round"></rect><rect x="58.95" y="373.33" width="132.79" height="69.41" style="fill:#fff;stroke:#263238;stroke-linecap:round;stroke-linejoin:round"></rect><rect x="64.71" y="385.48" width="121.26" height="40.62" style="fill:#263238;stroke:#263238;stroke-linecap:round;stroke-linejoin:round"></rect><rect x="196.47" y="385.54" width="25.21" height="15.74" style="fill:#fff;stroke:#263238;stroke-linecap:round;stroke-linejoin:round"></rect><rect x="226.04" y="385.54" width="25.21" height="15.74" style="fill:#fff;stroke:#263238;stroke-linecap:round;stroke-linejoin:round"></rect><rect x="255.6" y="385.54" width="25.21" height="15.74" style="fill:#fff;stroke:#263238;stroke-linecap:round;stroke-linejoin:round"></rect><rect x="285.16" y="385.54" width="25.21" height="15.74" style="fill:#fff;stroke:#263238;stroke-linecap:round;stroke-linejoin:round"></rect><rect x="314.72" y="385.54" width="25.21" height="15.74" style="fill:#fff;stroke:#263238;stroke-linecap:round;stroke-linejoin:round"></rect><rect x="196.47" y="410.45" width="25.21" height="15.74" style="fill:#fff;stroke:#263238;stroke-linecap:round;stroke-linejoin:round"></rect><rect x="226.04" y="410.45" width="25.21" height="15.74" style="fill:#fff;stroke:#263238;stroke-linecap:round;stroke-linejoin:round"></rect><rect x="255.6" y="410.45" width="25.21" height="15.74" style="fill:#fff;stroke:#263238;stroke-linecap:round;stroke-linejoin:round"></rect><rect x="285.16" y="410.45" width="25.21" height="15.74" style="fill:#fff;stroke:#263238;stroke-linecap:round;stroke-linejoin:round"></rect><rect x="314.72" y="410.45" width="25.21" height="15.74" style="fill:#fff;stroke:#263238;stroke-linecap:round;stroke-linejoin:round"></rect><rect x="66.02" y="385.54" width="20.33" height="15.74" style="fill:#fff;stroke:#263238;stroke-linecap:round;stroke-linejoin:round"></rect><rect x="89.85" y="385.54" width="20.33" height="15.74" style="fill:#fff;stroke:#263238;stroke-linecap:round;stroke-linejoin:round"></rect><rect x="113.69" y="385.54" width="20.33" height="15.74" style="fill:#fff;stroke:#263238;stroke-linecap:round;stroke-linejoin:round"></rect><rect x="137.53" y="385.54" width="20.33" height="15.74" style="fill:#fff;stroke:#263238;stroke-linecap:round;stroke-linejoin:round"></rect><rect x="161.37" y="385.54" width="20.33" height="15.74" style="fill:#fff;stroke:#263238;stroke-linecap:round;stroke-linejoin:round"></rect><rect x="66.02" y="410.45" width="20.33" height="15.74" style="fill:#fff;stroke:#263238;stroke-linecap:round;stroke-linejoin:round"></rect><rect x="89.85" y="410.45" width="20.33" height="15.74" style="fill:#fff;stroke:#263238;stroke-linecap:round;stroke-linejoin:round"></rect><rect x="113.69" y="410.45" width="20.33" height="15.74" style="fill:#fff;stroke:#263238;stroke-linecap:round;stroke-linejoin:round"></rect><rect x="137.53" y="410.45" width="20.33" height="15.74" style="fill:#fff;stroke:#263238;stroke-linecap:round;stroke-linejoin:round"></rect><rect x="161.37" y="410.45" width="20.33" height="15.74" style="fill:#fff;stroke:#263238;stroke-linecap:round;stroke-linejoin:round"></rect><rect x="111.84" y="362.63" width="106.84" height="11.35" style="fill:#263238;stroke:#263238;stroke-linecap:round;stroke-linejoin:round"></rect><rect x="182.62" y="362.63" width="106.84" height="11.35" style="fill:#fff;stroke:#263238;stroke-linecap:round;stroke-linejoin:round"></rect></g><g id="freepik--magnifying-glass--inject-16"><path d="M457.51,69.81l-56.75,56.75a13.23,13.23,0,1,1-18.71-18.72l56.74-56.75a13.24,13.24,0,0,1,18.72,18.72Z" style="fill:#263238;stroke:#263238;stroke-linecap:round;stroke-linejoin:round"></path><path d="M391.12,128.4,359.55,160a7.72,7.72,0,0,1-10.92-10.92l31.57-31.56a7.72,7.72,0,0,1,10.92,10.91Z" style="fill:#fff;stroke:#263238;stroke-linecap:round;stroke-linejoin:round"></path><path d="M267.1,154.51a61.51,61.51,0,1,0,87,0A61.51,61.51,0,0,0,267.1,154.51Zm79.34,79.34a50.69,50.69,0,1,1,0-71.69A50.69,50.69,0,0,1,346.44,233.85Z" style="fill:#263238;stroke:#263238;stroke-linecap:round;stroke-linejoin:round"></path><circle cx="313.39" cy="195.21" r="50.69" style="fill:#fff;opacity:0.56"></circle><path d="M269.9,151.71a61.51,61.51,0,1,0,87,0A61.51,61.51,0,0,0,269.9,151.71Zm79.34,79.34a50.69,50.69,0,1,1,0-71.69A50.69,50.69,0,0,1,349.24,231.05Z" style="fill:#fff;stroke:#263238;stroke-linecap:round;stroke-linejoin:round"></path></g><g id="freepik--Crane--inject-16"><line x1="152.41" y1="128.22" x2="152.41" y2="94.11" style="fill:none;stroke:#263238;stroke-linecap:round;stroke-linejoin:round"></line><path d="M149.57,81.68v5.79l-2.31,4a4.87,4.87,0,0,0,4.87,4.88h0A4.87,4.87,0,0,0,157,91.52v-4" style="fill:none;stroke:#263238;stroke-linecap:round;stroke-linejoin:round;stroke-width:3px"></path><rect x="144.55" y="70.56" width="9.76" height="10.84" transform="translate(298.85 151.97) rotate(180)" style="fill:#fff;stroke:#263238;stroke-linecap:round;stroke-linejoin:round"></rect><rect x="140.93" y="56.02" width="16.98" height="21.77" transform="translate(298.85 133.81) rotate(180)" style="fill:#fff;stroke:#263238;stroke-linecap:round;stroke-linejoin:round"></rect><rect x="135.87" y="66.95" width="26.92" height="6.68" transform="translate(298.67 140.59) rotate(180)" style="fill:#fff;stroke:#263238;stroke-linecap:round;stroke-linejoin:round"></rect><polygon points="149.42 66.95 153.28 66.95 158.73 73.13 158.16 73.64 155.32 73.64 149.42 66.95" style="fill:#263238"></polygon><polygon points="160.68 66.95 162.79 69.34 162.79 73.64 162.72 73.64 156.83 66.95 160.68 66.95" style="fill:#263238"></polygon><polygon points="142.01 66.95 145.87 66.95 151.32 73.13 150.75 73.64 147.91 73.64 142.01 66.95" style="fill:#263238"></polygon><polygon points="135.87 68.39 135.87 66.95 138.46 66.95 143.91 73.13 143.34 73.64 140.5 73.64 135.87 68.39" style="fill:#263238"></polygon><line x1="149.81" y1="55.64" x2="149.81" y2="42.54" style="fill:#fff;stroke:#263238;stroke-linecap:round;stroke-linejoin:round;stroke-width:2px"></line><polyline points="15.42 42.21 156.61 42.21 156.61 34.36 121 19.28 15.42 19.28" style="fill:none;stroke:#263238;stroke-linecap:round;stroke-linejoin:round;stroke-width:2px"></polyline><polygon points="121 42.21 121 19.28 97.47 42.21 97.47 19.28 121 42.21" style="fill:none;stroke:#263238;stroke-linecap:round;stroke-linejoin:round;stroke-width:2px"></polygon><polyline points="85.6 30.86 73.96 42.21 73.96 19.28 97.5 42.21 97.5 19.28 85.6 30.86" style="fill:none;stroke:#263238;stroke-linecap:round;stroke-linejoin:round;stroke-width:2px"></polyline><polygon points="73.99 42.21 73.99 19.28 50.46 42.21 50.46 19.28 73.99 42.21" style="fill:none;stroke:#263238;stroke-linecap:round;stroke-linejoin:round;stroke-width:2px"></polygon><polyline points="39.3 31.31 50.49 42.21 50.49 19.28 26.95 42.21 26.95 19.28 39.3 31.31" style="fill:none;stroke:#263238;stroke-linecap:round;stroke-linejoin:round;stroke-width:2px"></polyline><line x1="151.8" y1="111.58" x2="65.61" y2="176.64" style="fill:none;stroke:#263238;stroke-linecap:round;stroke-linejoin:round"></line><line x1="151.8" y1="111.58" x2="237.99" y2="176.64" style="fill:none;stroke:#263238;stroke-linecap:round;stroke-linejoin:round"></line></g><g id="freepik--Shield--inject-16"><path d="M236.61,175.68a195,195,0,0,1-77-43.76,10.8,10.8,0,0,0-14.83,0,194.89,194.89,0,0,1-77,43.76,10.8,10.8,0,0,0-7.66,11.26c2,23.31,14.07,88,84.91,149.83a10.82,10.82,0,0,0,14.23,0c70.84-61.8,82.91-126.52,84.91-149.83A10.78,10.78,0,0,0,236.61,175.68Z" style="fill:#689E78;stroke:#263238;stroke-linecap:round;stroke-linejoin:round"></path><path d="M220.36,185.37a160.82,160.82,0,0,1-60.83-34.57,10.79,10.79,0,0,0-14.56,0,161,161,0,0,1-60.83,34.57A10.82,10.82,0,0,0,76.5,196.8c2.06,20.37,12.91,71.56,68.58,120.77a10.83,10.83,0,0,0,14.33,0c55.68-49.21,66.52-100.4,68.59-120.77A10.85,10.85,0,0,0,220.36,185.37Z" style="fill:#263238;stroke:#263238;stroke-miterlimit:10"></path><path d="M220.36,185.37a163.14,163.14,0,0,1-50.76-26.13,10.8,10.8,0,0,0-17.35,8.6V299.33A10.8,10.8,0,0,0,170.66,307c45.93-45.8,55.42-91.3,57.34-110.21A10.85,10.85,0,0,0,220.36,185.37Z" style="fill:#fff;stroke:#263238;stroke-linecap:round;stroke-linejoin:round"></path><circle cx="153.64" cy="228.55" r="22.22" transform="translate(-116.61 175.58) rotate(-45)" style="fill:#fff;stroke:#263238;stroke-linecap:round;stroke-linejoin:round;stroke-width:3px"></circle><path d="M155.22,237.87a5,5,0,0,1-3.75-1.74l-9.75-11.38a5,5,0,0,1,7.58-6.5l6,7.07,20-22.32a5,5,0,1,1,7.43,6.66L159,236.21a5,5,0,0,1-3.71,1.66Z" style="fill:#689E78"></path><path d="M179.11,202.84a3.48,3.48,0,0,1,2.59,5.82l-23.84,26.55a3.49,3.49,0,0,1-2.6,1.16h0a3.51,3.51,0,0,1-2.61-1.22l-9.75-11.38a3.49,3.49,0,1,1,5.3-4.54l7.16,8.36L176.51,204a3.47,3.47,0,0,1,2.6-1.16m0-3h0a6.53,6.53,0,0,0-4.83,2.15l-18.9,21-4.94-5.76a6.49,6.49,0,1,0-9.86,8.45l9.76,11.37a6.47,6.47,0,0,0,4.85,2.27h.07a6.49,6.49,0,0,0,4.83-2.15l23.84-26.55a6.49,6.49,0,0,0-4.82-10.83Z" style="fill:#263238"></path></g><g id="freepik--Character--inject-16"><path d="M399,454s-3.46,5.27-6.28,7.49-9.44,5.42-11.29,6.91-1,2.82-.39,3.46,9.15,1.11,13.79,1.12,13-2,13-2,3.7.59,4.63.12,1.54-1.52,1.68-3.16-.38-10.9-.38-10.9Z" style="fill:#fff;stroke:#263238;stroke-linecap:round;stroke-linejoin:round"></path><path d="M408.92,468.53c-3.61.58-4.32,1.4-11.29,2.44-5.75.86-14.25-.2-17.35-.75a2.31,2.31,0,0,0,.74,1.62c.64.64,9.15,1.11,13.79,1.12s13-2,13-2,3.7.59,4.63.12a3.57,3.57,0,0,0,1.68-3.12A45.11,45.11,0,0,0,408.92,468.53Z" style="fill:#263238;stroke:#263238;stroke-linecap:round;stroke-linejoin:round"></path><path d="M402,457.87s-4-1.78-6.69,1.22" style="fill:none;stroke:#263238;stroke-linecap:round;stroke-linejoin:round;stroke-width:2px"></path><path d="M397.43,456.36s3.07,2.41,2.66,5" style="fill:none;stroke:#263238;stroke-linecap:round;stroke-linejoin:round;stroke-width:2px"></path><path d="M399,460.65s-3.15-1.46-5.29,1" style="fill:none;stroke:#263238;stroke-linecap:round;stroke-linejoin:round;stroke-width:2px"></path><path d="M395.41,459.42s2.42,2,2.08,4.1" style="fill:none;stroke:#263238;stroke-linecap:round;stroke-linejoin:round;stroke-width:2px"></path><path d="M396.68,463.47s-2.91-1.37-7.49.25" style="fill:none;stroke:#263238;stroke-linecap:round;stroke-linejoin:round;stroke-width:2px"></path><path d="M393,462.22a2.05,2.05,0,0,1-.41,3.2" style="fill:none;stroke:#263238;stroke-linecap:round;stroke-linejoin:round;stroke-width:2px"></path><path d="M421.79,459s-1.71,6.12-2.33,7-4.69,6-4.72,7.79,1.27,3.17,4.51,3.91,8.3,1,12.31-.83,5.83-2.43,6.85-5.23.34-12.19.34-12.19S426.2,450.2,421.79,459Z" style="fill:#fff;stroke:#263238;stroke-linecap:round;stroke-linejoin:round"></path><path d="M438.41,471.61A17.37,17.37,0,0,0,439,467a30.27,30.27,0,0,1-2.82,3.79c-2,2.19-5.39,4.62-11.9,5.1a12.94,12.94,0,0,1-9.32-2.86,3,3,0,0,0-.17.77c0,1.83,1.27,3.17,4.51,3.91s8.3,1,12.31-.83S437.39,474.41,438.41,471.61Z" style="fill:#263238;stroke:#263238;stroke-linecap:round;stroke-linejoin:round"></path><path d="M430.62,456.92s-5.49-.27-7.21,3" style="fill:none;stroke:#263238;stroke-linecap:round;stroke-linejoin:round;stroke-width:2px"></path><path d="M424.61,457s4.71,1,5.44,3.24" style="fill:none;stroke:#263238;stroke-linecap:round;stroke-linejoin:round;stroke-width:2px"></path><path d="M429.53,460.92s-5.49-.26-7.21,3" style="fill:none;stroke:#263238;stroke-linecap:round;stroke-linejoin:round;stroke-width:2px"></path><path d="M423.52,461s4.71,1,5.43,3.24" style="fill:none;stroke:#263238;stroke-linecap:round;stroke-linejoin:round;stroke-width:2px"></path><path d="M428.43,464.92s-5.49-.26-7.21,3" style="fill:none;stroke:#263238;stroke-linecap:round;stroke-linejoin:round;stroke-width:2px"></path><path d="M422.43,465s4.7,1,5.43,3.24" style="fill:none;stroke:#263238;stroke-linecap:round;stroke-linejoin:round;stroke-width:2px"></path><path d="M389,338.86s2.11,31.81,3,40.74,3.1,29.52,3.28,30.07.73,7.83.73,7.83-.55,2.92.18,9.3,2.92,19.68,2.92,19.68-1.83.36-1.64,1.82.91,5.47.91,5.47,6.92,2.36,8.93,2.55,6,0,6,0,1.64-2.74,1.46-4.19a44.91,44.91,0,0,0-1.46-5.29l.91-10.75,1.46-43.91s5.65,42.82,6.56,45.91,1.82,8,1.82,8-1.82,1.46-1.82,2.37.36,7.29.36,7.29,3.65-2.92,7.11-2.37,9.11,4.56,9.11,4.56a37.23,37.23,0,0,1,1.1-5.47c.72-2.37-.73-8.38-1.1-10a14.74,14.74,0,0,1-.18-5.65c.36-1.64.55-6.74.73-8.38s-.18-42.46-.18-42.46l3.72-46.75-53-1.64Z" style="fill:#263238;stroke:#263238;stroke-linecap:round;stroke-linejoin:round"></path><path d="M397.17,270.09s-6.79,12.69-8.56,16.33-3.83,7.75-3.83,7.75c-6.46-9.35-12.87-18.66-19.87-27.61l-1.56-1.82s-8.74-3.3-9.56-2.5-2.79,13.12-.87,15,10,3,10,3l1.53,1.59-.21.19s12.23,27.14,14.2,29,4.29,5.13,8.55,5.34c2.44.11,10.7-17.35,10.7-17.35Z" style="fill:#fff;stroke:#263238;stroke-linecap:round;stroke-linejoin:round"></path><path d="M396.35,269.91l-10.48,18.33L394.15,308l5.12-10.47s2.93-28.76.73-29A4.54,4.54,0,0,0,396.35,269.91Z" style="fill:#fff;stroke:#263238;stroke-linecap:round;stroke-linejoin:round"></path><path d="M383.19,290.67s8.28,22.18,9.26,22.18,3.9-4.39,3.65-6.58-6.82-19.5-9-19.74S384.16,288.48,383.19,290.67Z" style="fill:#fff;stroke:#263238;stroke-linecap:round;stroke-linejoin:round"></path><path d="M368.16,270.58s-2.92-5.06-3.24-7.12c-.51-3.2,3.16-5.19,1.47-5.95s-4.83,1.44-5.12,3.73a13.64,13.64,0,0,0,.17,4.33s-1.64,3-1.22,5.24,1.55,4.69,2.41,5" style="fill:#fff;stroke:#263238;stroke-linecap:round;stroke-linejoin:round"></path><path d="M352.5,259.71a2.12,2.12,0,0,0-2.6,1.65,2,2,0,0,0,1.08,2.69c1,.49,6.59,3.69,7.15,2.15s1.1-2.92-.07-3.61S352.5,259.71,352.5,259.71Z" style="fill:#fff;stroke:#263238;stroke-linecap:round;stroke-linejoin:round"></path><path d="M351.8,264.32a2.11,2.11,0,0,0-2.6,1.64,2,2,0,0,0,1.08,2.7c1,.49,6.58,3.69,7.15,2.14s1.09-2.91-.07-3.6S351.8,264.32,351.8,264.32Z" style="fill:#fff;stroke:#263238;stroke-linecap:round;stroke-linejoin:round"></path><path d="M351.33,269.05a1.8,1.8,0,0,0-2.21,1.4,1.69,1.69,0,0,0,.92,2.29c.86.42,5.6,3.14,6.08,1.83s.93-2.48-.06-3.07S351.33,269.05,351.33,269.05Z" style="fill:#fff;stroke:#263238;stroke-linecap:round;stroke-linejoin:round"></path><path d="M351.52,273.26a1.6,1.6,0,0,0-2,1.25,1.51,1.51,0,0,0,.81,2c.77.37,5,2.8,5.42,1.63s.83-2.21,0-2.74S351.52,273.26,351.52,273.26Z" style="fill:#fff;stroke:#263238;stroke-linecap:round;stroke-linejoin:round"></path><path d="M408.4,260.44s-11.26,5.16-12,7-4.53,39.1-6.72,54-1.25,18.86-1.25,18.86,2.34,4.85,25.34,4.06,31.12-4.22,31.44-6.25.62.54.62-.87,1.72-67.88,0-71.95-11.42-10.79-14.23-11.1S408.4,260.44,408.4,260.44Z" style="fill:#689E78;stroke:#263238;stroke-linecap:round;stroke-linejoin:round"></path><path d="M389.66,323.69l0,.18c-.38,2.59-.65,4.92-.84,7.05a142.62,142.62,0,0,0,35.1,2.66c12-.73,18.66-1.17,22.05-1.39.05-2.05.1-4.43.15-7.06C438.1,326,406.8,328.71,389.66,323.69Z" style="fill:#fff;stroke:#263238;stroke-linecap:round;stroke-linejoin:round"></path><path d="M427.36,291.51c.52-2.9,3.12-17.06,6.49-26.13l5.49,3.63,5.46.14s-12.25-10.79-15.71-11.72a7.22,7.22,0,0,0-2.1,0c-6.88,1.69-18.59,5.47-18.59,5.47s-11.26,5.16-12,7a26.3,26.3,0,0,0-.55,3.13l2.82-1.6-3.4,17.79c-.55-.13-1.09-.27-1.61-.42l-.83,7.19a142.37,142.37,0,0,0,34.49,2.54c9.27-.57,15.36-1,19.21-1.21,0-2.35,0-4.68,0-6.95C442.14,290.78,435.15,291.31,427.36,291.51Zm-28.88-1.6,4.16-20.71c5.2-2.87,11.19-6,13.8-6.84a50.85,50.85,0,0,1,9.85-2l2.89,1.92c-.33.85-6.5,16.84-8.14,29.24l.84.07A133.47,133.47,0,0,1,398.48,289.91Z" style="fill:#fff;stroke:#263238;stroke-linecap:round;stroke-linejoin:round"></path><path d="M397.88,336.16c.08,1.42.2,2.8.35,4.14" style="fill:none;stroke:#263238;stroke-miterlimit:10"></path><path d="M401.42,305.27c-1.62,9.45-3.87,16.74-3.66,27.77" style="fill:none;stroke:#263238;stroke-miterlimit:10"></path><path d="M404.18,291.18s-1.17,4.88-2.48,12.11" style="fill:none;stroke:#263238;stroke-miterlimit:10"></path><path d="M391.7,339.41s-9.65-1.46-10.2-.37,0,16,.91,16.95,7.11,2.19,8.93,1.09,2.91-1.82,3.28-2.73.36-12.39-.37-13.85A2.39,2.39,0,0,0,391.7,339.41Z" style="fill:#263238;stroke:#263238;stroke-linecap:round;stroke-linejoin:round"></path><path d="M403.18,341.23s-1.45,14.76.91,15.67a25.38,25.38,0,0,0,8.2,1.1c.92-.19,4.2-.73,4.74-2.19s.55-12.94.18-14S404.09,339.77,403.18,341.23Z" style="fill:#263238;stroke:#263238;stroke-linecap:round;stroke-linejoin:round"></path><path d="M426.14,342.87s.73,16.58,1.1,17.31,7.29,5.29,8.56,5.1,11.48-1.27,12-3.28,1.82-18.22.73-20-3.47-2.55-5.65-2.73S428,340.87,428,340.87A2,2,0,0,0,426.14,342.87Z" style="fill:#263238;stroke:#263238;stroke-linecap:round;stroke-linejoin:round"></path><path d="M413.09,256.3l-4.69,4.14-.16,4.78-3.75,23.46S426.7,259.74,427,259.27a37.71,37.71,0,0,1,4.54-2.66l-1.41-5.79-2.35.63Z" style="fill:#fff;stroke:#263238;stroke-linecap:round;stroke-linejoin:round"></path><polyline points="408.4 260.44 411.54 266.65 412.03 261.9 414.72 268.49 423.75 261.13" style="fill:none;stroke:#263238;stroke-linecap:round;stroke-linejoin:round"></polyline><path d="M410,222.53s-2,3.87-2.13,4.43a20.7,20.7,0,0,0,0,2.27s-5.1,5.06-4.93,5.43,2.13,1,2.13,1-1.87,12.91-.78,13.21,8.94-.39,8.94-.39L412,261.9l16.76-9.67,1.9-8.91s5.41-4.89,5.9-7.78.15-3.51.15-3.51Z" style="fill:#fff;stroke:#263238;stroke-linecap:round;stroke-linejoin:round"></path><path d="M436.74,232,419.61,226l-.08,1.3-1.71,6s5.2-2.41,6.17-2.7,2.2,3.11.88,4.83-5.08,3.69-5.08,3.69,3,4.4,6.74,5.27a13.82,13.82,0,0,0,3.89.34l.27-1.34s5.41-4.89,5.9-7.78S436.74,232,436.74,232Z" style="fill:#263238;stroke:#263238;stroke-linecap:round;stroke-linejoin:round"></path><path d="M409,226.81a2.65,2.65,0,0,1,3.23,1.13" style="fill:none;stroke:#263238;stroke-linecap:round;stroke-linejoin:round"></path><path d="M410.14,230.09c-.13.74-.48,1.29-.78,1.24s-.46-.69-.33-1.43.48-1.29.78-1.23S410.26,229.36,410.14,230.09Z" style="fill:#263238"></path><polygon points="404.1 248.62 416.97 248.15 413 251.91 413.14 248.52 404.1 248.62" style="fill:#263238;stroke:#263238;stroke-linecap:round;stroke-linejoin:round"></polygon><polygon points="426.25 231.94 430.42 244.66 433.82 242.37 429.86 232.22 426.25 231.94" style="fill:#fff;stroke:#263238;stroke-linecap:round;stroke-linejoin:round"></polygon><path d="M408.23,219.5s-8-.32-7.08.17,39.13,19.83,39.13,19.83a26.52,26.52,0,0,1-.15-4c.17-1,2.86-7,3.32-13.55s-12.56-12.51-19.23-14.32-10.6.84-11.86,4.28A41.44,41.44,0,0,1,408.23,219.5Z" style="fill:#689E78;stroke:#263238;stroke-linecap:round;stroke-linejoin:round"></path><path d="M418.85,224.8,412.17,221s5.74-8.7,5.8-9.86a19.13,19.13,0,0,1,.22-2.16s.46-1.83,6.61,0" style="fill:none;stroke:#263238;stroke-linecap:round;stroke-linejoin:round"></path><path d="M404.49,236.45a8.19,8.19,0,0,1,4-.11c1.57.57,1.92,1.72,2.56,1.6s4.49-1,.44,1.71c-1.52,1-2.88.67-4.07.53a15.94,15.94,0,0,1-2.67-.64A2.25,2.25,0,0,1,404.49,236.45Z" style="fill:#263238;stroke:#263238;stroke-linecap:round;stroke-linejoin:round"></path><path d="M434,337.7a12.7,12.7,0,0,1-3.38,2.61,1.44,1.44,0,0,1-.62,1.48" style="fill:none;stroke:#263238;stroke-linecap:round;stroke-linejoin:round"></path><path d="M468.6,298.85c-3.38-8.44-8.76-15.91-13.27-23.8a44.59,44.59,0,0,0-4.79-7.4,12.09,12.09,0,0,0-7.46-4.34h-.15a7.55,7.55,0,0,0-5.88,2,8.7,8.7,0,0,0-2.58,5.63,23.81,23.81,0,0,0,2.66,14.76c2.56,4.64,6.54,8.22,10.26,12,1.09,1.11,2.15,2.23,3.15,3.41Q440.78,313.5,431,325.9a6.72,6.72,0,0,0-1,1.57h0l-.26,0-5.52,3.18s-4.08,2.77-4.15,4.15c-.15,2.93.94,4.15,1.83,5.56a21.8,21.8,0,0,0,3.65,3.13c.88.47,3,1.3,4.43.11s5.69-2.37,5.93-4.27-1.9-1.66-1.9-1.66a7,7,0,0,0,2.49-4.64,8.44,8.44,0,0,0,1.82-.6,23,23,0,0,0,5.1-3.58c7.23-6,15-11.42,22.34-17.3a11.91,11.91,0,0,0,3.57-3.88C470.62,305,469.74,301.68,468.6,298.85Z" style="fill:#fff;stroke:#263238;stroke-linecap:round;stroke-linejoin:round"></path><path d="M468.6,298.85a28,28,0,0,0-11.82-3.55,18,18,0,0,0-9.39,2.4c-3.72-3.8-7.7-7.38-10.26-12a23.81,23.81,0,0,1-2.66-14.76,8.7,8.7,0,0,1,2.58-5.63,7.55,7.55,0,0,1,5.88-2h.15a12.09,12.09,0,0,1,7.46,4.34,44.59,44.59,0,0,1,4.79,7.4C459.84,282.94,465.22,290.41,468.6,298.85Z" style="fill:#fff;stroke:#263238;stroke-linecap:round;stroke-linejoin:round"></path><path d="M447.76,304.08s5.85-4.39,10.73-3.9,10.23,4.63,11,4.38,2.93-2.43,2.2-4.87a42.32,42.32,0,0,0-2.2-6.58c-1.22-2.68-6.33-4.14-11.21-2.92s-12.67,6.82-12.42,8.52A29.15,29.15,0,0,0,447.76,304.08Z" style="fill:#fff;stroke:#263238;stroke-linecap:round;stroke-linejoin:round"></path></g></svg>
