<svg width="121" height="121" viewBox="0 0 121 121" fill="none" xmlns="http://www.w3.org/2000/svg">
<rect width="121" height="121" rx="20" fill="#FFF7E3"/>
<path d="M78.6983 94.1458H43.3017C35.6242 94.1458 29.3958 87.9175 29.3958 80.24V59.4891C29.3958 51.8117 35.6242 45.5833 43.3017 45.5833H78.6983C86.3758 45.5833 92.6042 51.8117 92.6042 59.4891V63.9291C92.6042 65.1933 91.5558 66.2416 90.2917 66.2416H84.0633C82.9842 66.2416 81.9975 66.6425 81.2883 67.3825L81.2575 67.4133C80.3942 68.2458 79.9933 69.3866 80.0858 70.5583C80.2708 72.5933 82.2133 74.2275 84.4333 74.2275H90.2917C91.5558 74.2275 92.6042 75.2758 92.6042 76.54V80.2091C92.6042 87.9175 86.3758 94.1458 78.6983 94.1458ZM43.3017 50.2083C38.1833 50.2083 34.0208 54.3708 34.0208 59.4891V80.24C34.0208 85.3583 38.1833 89.5208 43.3017 89.5208H78.6983C83.8167 89.5208 87.9792 85.3583 87.9792 80.24V78.8833H84.4333C79.7775 78.8833 75.8308 75.43 75.4608 70.99C75.2142 68.4616 76.1392 65.9641 77.9892 64.145C79.5925 62.5108 81.7508 61.6166 84.0633 61.6166H87.9792V59.4891C87.9792 54.3708 83.8167 50.2083 78.6983 50.2083H43.3017Z" fill="#FF9900"/>
<path d="M31.7083 64.5767C30.4442 64.5767 29.3958 63.5283 29.3958 62.2642V48.1735C29.3958 43.5794 32.2942 39.4167 36.58 37.7825L61.0617 28.5325C63.59 27.5767 66.3958 27.916 68.585 29.4577C70.805 30.9993 72.1 33.4968 72.1 36.1793V47.8959C72.1 49.1601 71.0517 50.2084 69.7875 50.2084C68.5233 50.2084 67.475 49.1601 67.475 47.8959V36.1793C67.475 35.0077 66.92 33.9284 65.9333 33.2501C64.9467 32.5718 63.775 32.4176 62.665 32.8493L38.1833 42.0993C35.6858 43.0551 33.99 45.491 33.99 48.1735V62.2642C34.0208 63.5592 32.9725 64.5767 31.7083 64.5767Z" fill="#FF9900"/>
<path d="M84.4349 78.884C79.779 78.884 75.8324 75.4306 75.4624 70.9906C75.2157 68.4315 76.1407 65.934 77.9907 64.1148C79.5632 62.5115 81.7215 61.6173 84.034 61.6173H90.4474C93.4999 61.7098 95.8432 64.1148 95.8432 67.0748V73.4265C95.8432 76.3865 93.4999 78.7915 90.5399 78.884H84.4349ZM90.3857 66.2423H84.0649C82.9857 66.2423 81.999 66.6431 81.2899 67.3831C80.3957 68.2465 79.964 69.4181 80.0874 70.5898C80.2724 72.6248 82.2149 74.259 84.4349 74.259H90.4782C90.879 74.259 91.249 73.889 91.249 73.4265V67.0748C91.249 66.6123 90.879 66.2731 90.3857 66.2423Z" fill="#FF9900"/>
<path d="M67.1667 63.3125H45.5833C44.3192 63.3125 43.2708 62.2642 43.2708 61C43.2708 59.7358 44.3192 58.6875 45.5833 58.6875H67.1667C68.4308 58.6875 69.4792 59.7358 69.4792 61C69.4792 62.2642 68.4308 63.3125 67.1667 63.3125Z" fill="#FF9900"/>
</svg>
