<svg width="121" height="121" viewBox="0 0 121 121" fill="none" xmlns="http://www.w3.org/2000/svg">
<rect width="121" height="121" rx="20" fill="#F1F7FF"/>
<path d="M60.9981 65.0081C60.5973 65.0081 60.1965 64.9156 59.8265 64.6997L32.6005 48.9439C31.4905 48.2964 31.1205 46.878 31.768 45.768C32.4155 44.658 33.803 44.2879 34.9438 44.9354L60.9981 60.0131L86.8978 45.028C88.0078 44.3805 89.4262 44.7814 90.0737 45.8606C90.7212 46.9706 90.3206 48.3888 89.2415 49.0363L62.2006 64.6997C61.7998 64.8847 61.399 65.0081 60.9981 65.0081Z" fill="#2639ED"/>
<path d="M61 92.9433C59.7358 92.9433 58.6875 91.895 58.6875 90.6308V62.665C58.6875 61.4008 59.7358 60.3525 61 60.3525C62.2642 60.3525 63.3125 61.4008 63.3125 62.665V90.6308C63.3125 91.895 62.2642 92.9433 61 92.9433Z" fill="#2639ED"/>
<path d="M60.9966 94.1464C58.1908 94.1464 55.5083 93.4989 53.4733 92.3581L37.0083 83.2318C32.5374 80.7651 29.0225 74.8139 29.0225 69.6956V52.244C29.0225 47.1256 32.5374 41.2058 37.0083 38.7083L53.4733 29.5815C57.6666 27.2382 64.2649 27.2382 68.4891 29.5815L84.9541 38.7083C89.4249 41.175 92.9399 47.1256 92.9399 52.244V63.5289C92.9399 64.7931 91.8916 65.8414 90.6274 65.8414C89.3633 65.8414 88.3149 64.7931 88.3149 63.5289V52.244C88.3149 48.8523 85.6941 44.4125 82.7341 42.7783L66.2691 33.6516C63.4633 32.0791 58.5608 32.0791 55.7549 33.6516L39.2899 42.7783C36.2991 44.4433 33.7091 48.8523 33.7091 52.244V69.6956C33.7091 73.0873 36.3299 77.5276 39.2899 79.1618L55.7549 88.2881C58.4683 89.7989 63.5866 89.7989 66.2691 88.2881C67.3791 87.6714 68.7974 88.0726 69.4141 89.1826C70.0308 90.2926 69.6299 91.7106 68.5199 92.3273C66.4849 93.4989 63.8024 94.1464 60.9966 94.1464Z" fill="#2639ED"/>
<path d="M83.2 92.2958C76.4783 92.2958 71.0208 86.8383 71.0208 80.1167C71.0208 73.395 76.4783 67.9375 83.2 67.9375C89.9217 67.9375 95.3792 73.395 95.3792 80.1167C95.3792 86.8383 89.9217 92.2958 83.2 92.2958ZM83.2 72.5625C79.0375 72.5625 75.6458 75.9542 75.6458 80.1167C75.6458 84.2792 79.0375 87.6708 83.2 87.6708C87.3625 87.6708 90.7542 84.2792 90.7542 80.1167C90.7542 75.9542 87.3625 72.5625 83.2 72.5625Z" fill="#2639ED"/>
<path d="M94.9151 94.1458C94.3293 94.1458 93.7435 93.93 93.281 93.4675L90.1976 90.3842C89.3035 89.49 89.3035 88.0097 90.1976 87.1155C91.0918 86.2213 92.5718 86.2213 93.466 87.1155L96.5493 90.1988C97.4435 91.093 97.4435 92.5733 96.5493 93.4675C96.0868 93.93 95.501 94.1458 94.9151 94.1458Z" fill="#2639ED"/>
</svg>
