<svg width="121" height="121" viewBox="0 0 121 121" fill="none" xmlns="http://www.w3.org/2000/svg">
<rect width="121" height="121" rx="20" fill="#DEFFEE"/>
<path d="M55.1734 79.9616H43.4876C42.2234 79.9616 41.1751 78.9132 41.1751 77.6491V61.8624C41.1751 58.6558 43.7959 56.0346 47.0026 56.0346H55.1734C56.4376 56.0346 57.4859 57.0829 57.4859 58.3471V77.6179C57.4859 78.9129 56.4376 79.9616 55.1734 79.9616ZM45.8001 75.3366H52.8609V60.6907H47.0026C46.3551 60.6907 45.8001 61.2146 45.8001 61.8929V75.3366Z" fill="#00DA71"/>
<path d="M66.8263 79.9616H55.1404C53.8763 79.9616 52.828 78.9133 52.828 77.6491V47.8638C52.828 44.6572 55.4488 42.0363 58.6554 42.0363H63.3421C66.5488 42.0363 69.1696 44.6572 69.1696 47.8638V77.6491C69.1388 78.9133 68.1213 79.9616 66.8263 79.9616ZM57.4838 75.3366H64.5446V47.8638C64.5446 47.2163 64.0204 46.6613 63.3421 46.6613H58.6554C58.0079 46.6613 57.4529 47.1855 57.4529 47.8638V75.3366H57.4838Z" fill="#00DA71"/>
<path d="M78.5152 79.9616H66.8293C65.5652 79.9616 64.5168 78.9133 64.5168 77.6491V63.6196C64.5168 62.3555 65.5652 61.3071 66.8293 61.3071H75.0002C78.2068 61.3071 80.8277 63.928 80.8277 67.1346V77.6491C80.8277 78.9133 79.8102 79.9616 78.5152 79.9616ZM69.1418 75.3366H76.2027V67.1346C76.2027 66.4871 75.6785 65.9321 75.0002 65.9321H69.1418V75.3366Z" fill="#00DA71"/>
<path d="M70.25 94.1459H51.75C35.0075 94.1459 27.8542 86.9925 27.8542 70.25V51.75C27.8542 35.0075 35.0075 27.8542 51.75 27.8542H70.25C86.9925 27.8542 94.1458 35.0075 94.1458 51.75V70.25C94.1458 86.9925 86.9925 94.1459 70.25 94.1459ZM51.75 32.4792C37.5358 32.4792 32.4792 37.5359 32.4792 51.75V70.25C32.4792 84.4642 37.5358 89.5209 51.75 89.5209H70.25C84.4642 89.5209 89.5208 84.4642 89.5208 70.25V51.75C89.5208 37.5359 84.4642 32.4792 70.25 32.4792H51.75Z" fill="#00DA71"/>
</svg>
