<svg width="127" height="28" viewBox="0 0 127 28" fill="none" xmlns="http://www.w3.org/2000/svg">
<path d="M29.4849 27H23.2129L14.8609 14.392V27H8.58888V4.44H14.8609L23.2129 17.208V4.44H29.4849V27ZM36.5256 7.384C35.4163 7.384 34.5203 7.08533 33.8376 6.488C33.1763 5.86933 32.8456 5.10133 32.8456 4.184C32.8456 3.24533 33.1763 2.46667 33.8376 1.848C34.5203 1.22933 35.4163 0.919998 36.5256 0.919998C37.6136 0.919998 38.4883 1.22933 39.1496 1.848C39.8323 2.46667 40.1736 3.24533 40.1736 4.184C40.1736 5.10133 39.8323 5.86933 39.1496 6.488C38.4883 7.08533 37.6136 7.384 36.5256 7.384ZM39.6296 9.048V27H33.3576V9.048H39.6296Z" fill="#0F766E"/>
<path d="M68.2694 4.664V27H63.7894V12.472L57.8054 27H54.4134L48.3974 12.472V27H43.9174V4.664H49.0054L56.1094 21.272L63.2134 4.664H68.2694ZM86.7906 4.664V8.28H77.4786V14.008H84.6146V17.56H77.4786V27H72.9986V4.664H86.7906ZM94.7474 4.664V27H90.2674V4.664H94.7474ZM107.282 4.664C109.628 4.664 111.687 5.12267 113.458 6.04C115.25 6.95733 116.626 8.26933 117.586 9.976C118.567 11.6613 119.058 13.624 119.058 15.864C119.058 18.104 118.567 20.0667 117.586 21.752C116.626 23.416 115.25 24.7067 113.458 25.624C111.687 26.5413 109.628 27 107.282 27H99.4736V4.664H107.282ZM107.122 23.192C109.468 23.192 111.282 22.552 112.562 21.272C113.842 19.992 114.482 18.1893 114.482 15.864C114.482 13.5387 113.842 11.7253 112.562 10.424C111.282 9.10133 109.468 8.44 107.122 8.44H103.954V23.192H107.122Z" fill="black"/>
</svg>
