<svg width="20" height="20" viewBox="0 0 20 20" fill="none" xmlns="http://www.w3.org/2000/svg">
<path d="M10 1.66666C5.48252 1.66666 1.66669 5.48249 1.66669 9.99999C1.66669 14.5175 5.48252 18.3333 10 18.3333C14.5175 18.3333 18.3334 14.5175 18.3334 9.99999C18.3334 5.48249 14.5175 1.66666 10 1.66666ZM10 5.83332C11.4392 5.83332 12.5 6.89332 12.5 8.33332C12.5 9.77332 11.4392 10.8333 10 10.8333C8.56169 10.8333 7.50002 9.77332 7.50002 8.33332C7.50002 6.89332 8.56169 5.83332 10 5.83332ZM5.74502 13.9767C6.49252 12.8767 7.73919 12.1433 9.16669 12.1433H10.8334C12.2617 12.1433 13.5075 12.8767 14.255 13.9767C13.19 15.1167 11.6792 15.8333 10 15.8333C8.32085 15.8333 6.81002 15.1167 5.74502 13.9767Z" fill="#F8F8F8"/>
</svg>
