<svg width="20" height="20" viewBox="0 0 20 20" fill="none" xmlns="http://www.w3.org/2000/svg">
<path d="M18.75 0V20H2.5V17.5195H1.25V16.2695H2.5V13.7598H1.25V12.5098H2.5V7.50977H1.25V6.25977H2.5V3.75977H1.25V2.50977H2.5V0H18.75ZM17.5 1.25H3.75V18.75H17.5V1.25ZM16.25 5H10V3.75H16.25V5ZM16.25 7.5H10V6.25H16.25V7.5ZM6.875 16.2109C6.62109 16.2109 6.38346 16.1654 6.16211 16.0742C5.94076 15.9831 5.74544 15.8529 5.57617 15.6836C5.4069 15.5143 5.27669 15.319 5.18555 15.0977C5.0944 14.8763 5.04557 14.6354 5.03906 14.375C5.03906 14.1211 5.08464 13.8835 5.17578 13.6621C5.26693 13.4408 5.39714 13.2487 5.56641 13.0859C5.73568 12.9232 5.93099 12.7897 6.15234 12.6855C6.3737 12.5814 6.61458 12.5326 6.875 12.5391C7.12891 12.5391 7.36654 12.5879 7.58789 12.6855C7.80924 12.7832 8.0013 12.9134 8.16406 13.0762C8.32682 13.2389 8.46029 13.4342 8.56445 13.6621C8.66862 13.89 8.71745 14.1276 8.71094 14.375C8.71094 14.6289 8.66211 14.8665 8.56445 15.0879C8.4668 15.3092 8.33659 15.5046 8.17383 15.6738C8.01107 15.8431 7.81576 15.9733 7.58789 16.0645C7.36003 16.1556 7.1224 16.2044 6.875 16.2109ZM6.875 13.7109C6.6862 13.7109 6.52995 13.7728 6.40625 13.8965C6.28255 14.0202 6.21745 14.1797 6.21094 14.375C6.21094 14.5638 6.27279 14.7201 6.39648 14.8438C6.52018 14.9674 6.67969 15.0326 6.875 15.0391C7.0638 15.0391 7.22005 14.9772 7.34375 14.8535C7.46745 14.7298 7.53255 14.5703 7.53906 14.375C7.53906 14.1862 7.47721 14.0299 7.35352 13.9062C7.22982 13.7826 7.07031 13.7174 6.875 13.7109ZM6.875 7.46094C6.62109 7.46094 6.38346 7.41536 6.16211 7.32422C5.94076 7.23307 5.74544 7.10286 5.57617 6.93359C5.4069 6.76432 5.27669 6.56901 5.18555 6.34766C5.0944 6.1263 5.04557 5.88542 5.03906 5.625C5.03906 5.37109 5.08464 5.13346 5.17578 4.91211C5.26693 4.69076 5.39714 4.4987 5.56641 4.33594C5.73568 4.17318 5.93099 4.03971 6.15234 3.93555C6.3737 3.83138 6.61458 3.78255 6.875 3.78906C7.12891 3.78906 7.36654 3.83789 7.58789 3.93555C7.80924 4.0332 8.0013 4.16341 8.16406 4.32617C8.32682 4.48893 8.46029 4.68424 8.56445 4.91211C8.66862 5.13997 8.71745 5.3776 8.71094 5.625C8.71094 5.87891 8.66211 6.11654 8.56445 6.33789C8.4668 6.55924 8.33659 6.75456 8.17383 6.92383C8.01107 7.0931 7.81576 7.22331 7.58789 7.31445C7.36003 7.4056 7.1224 7.45443 6.875 7.46094ZM6.875 4.96094C6.6862 4.96094 6.52995 5.02279 6.40625 5.14648C6.28255 5.27018 6.21745 5.42969 6.21094 5.625C6.21094 5.8138 6.27279 5.97005 6.39648 6.09375C6.52018 6.21745 6.67969 6.28255 6.875 6.28906C7.0638 6.28906 7.22005 6.22721 7.34375 6.10352C7.46745 5.97982 7.53255 5.82031 7.53906 5.625C7.53906 5.4362 7.47721 5.27995 7.35352 5.15625C7.22982 5.03255 7.07031 4.96745 6.875 4.96094ZM16.25 13.75H10V12.5H16.25V13.75ZM16.25 16.25H10V15H16.25V16.25Z" fill="#F8F8F8"/>
</svg>
