<svg width="20" height="20" viewBox="0 0 20 20" fill="none" xmlns="http://www.w3.org/2000/svg">
<path d="M12.6814 7.85714C13.3714 7.85714 13.9314 8.41714 13.9314 9.10714V13.9279C13.9314 14.97 13.5175 15.9694 12.7806 16.7063C12.0437 17.4432 11.0443 17.8571 10.0022 17.8571C8.96005 17.8571 7.96062 17.4432 7.22374 16.7063C6.48685 15.9694 6.07287 14.97 6.07287 13.9279V9.10714C6.07287 8.41714 6.63216 7.85714 7.32287 7.85714H12.6814ZM2.67859 7.85714L5.80859 7.85571C5.5512 8.16587 5.39623 8.54816 5.36502 8.95L5.35787 9.10714V13.9279C5.35787 14.7371 5.56573 15.4986 5.9293 16.1614C5.43996 16.3749 4.90514 16.4632 4.37313 16.4183C3.84113 16.3734 3.32868 16.1967 2.88206 15.9042C2.43543 15.6116 2.06869 15.2125 1.81493 14.7427C1.56118 14.273 1.4284 13.7475 1.42859 13.2136V9.10714C1.42878 8.77555 1.56063 8.45761 1.79517 8.22321C2.0297 7.98881 2.34772 7.85714 2.6793 7.85714H2.67859ZM14.1957 7.85571L17.3214 7.85714C18.0114 7.85714 18.5714 8.41714 18.5714 9.10714V13.2143C18.5717 13.748 18.439 14.2733 18.1854 14.7429C17.9318 15.2125 17.5653 15.6115 17.1189 15.9041C16.6725 16.1966 16.1603 16.3733 15.6285 16.4184C15.0967 16.4634 14.5621 16.3754 14.0729 16.1621L14.1129 16.0893C14.4193 15.5086 14.6057 14.8543 14.64 14.1607L14.6457 13.9279V9.10714C14.6457 8.63142 14.4764 8.19571 14.1957 7.85571ZM10 2.14285C10.3283 2.14285 10.6534 2.20752 10.9567 2.33315C11.26 2.45879 11.5356 2.64294 11.7678 2.87509C11.9999 3.10723 12.1841 3.38283 12.3097 3.68614C12.4354 3.98946 12.5 4.31455 12.5 4.64285C12.5 4.97116 12.4354 5.29625 12.3097 5.59956C12.1841 5.90288 11.9999 6.17847 11.7678 6.41062C11.5356 6.64277 11.26 6.82692 10.9567 6.95255C10.6534 7.07819 10.3283 7.14285 10 7.14285C9.33698 7.14285 8.70109 6.87946 8.23225 6.41062C7.76341 5.94178 7.50002 5.30589 7.50002 4.64285C7.50002 3.97981 7.76341 3.34393 8.23225 2.87509C8.70109 2.40625 9.33698 2.14285 10 2.14285V2.14285ZM15.7164 2.85714C15.9978 2.85714 16.2765 2.91257 16.5365 3.02025C16.7965 3.12794 17.0327 3.28578 17.2317 3.48477C17.4307 3.68375 17.5885 3.91998 17.6962 4.17996C17.8039 4.43994 17.8593 4.71859 17.8593 5C17.8593 5.2814 17.8039 5.56005 17.6962 5.82003C17.5885 6.08002 17.4307 6.31624 17.2317 6.51522C17.0327 6.71421 16.7965 6.87205 16.5365 6.97974C16.2765 7.08743 15.9978 7.14285 15.7164 7.14285C15.1481 7.14285 14.6031 6.91709 14.2012 6.51522C13.7994 6.11336 13.5736 5.56832 13.5736 5C13.5736 4.43167 13.7994 3.88663 14.2012 3.48477C14.6031 3.0829 15.1481 2.85714 15.7164 2.85714V2.85714ZM4.28359 2.85714C4.56499 2.85714 4.84364 2.91257 5.10363 3.02025C5.36361 3.12794 5.59984 3.28578 5.79882 3.48477C5.9978 3.68375 6.15564 3.91998 6.26333 4.17996C6.37102 4.43994 6.42645 4.71859 6.42645 5C6.42645 5.2814 6.37102 5.56005 6.26333 5.82003C6.15564 6.08002 5.9978 6.31624 5.79882 6.51522C5.59984 6.71421 5.36361 6.87205 5.10363 6.97974C4.84364 7.08743 4.56499 7.14285 4.28359 7.14285C3.71527 7.14285 3.17022 6.91709 2.76836 6.51522C2.3665 6.11336 2.14073 5.56832 2.14073 5C2.14073 4.43167 2.3665 3.88663 2.76836 3.48477C3.17022 3.0829 3.71527 2.85714 4.28359 2.85714V2.85714Z" fill="#F8F8F8"/>
</svg>
